<svg width="200" height="200" viewBox="0 0 200 200" fill="none" xmlns="http://www.w3.org/2000/svg">
<rect width="200" height="200" fill="white"/>
<rect x="3.5" y="3.5" width="193" height="193" stroke="#353535" stroke-width="7"/>
<path d="M40.792 154.884C41.08 154.884 41.404 154.908 41.764 154.956C42.148 154.98 42.52 155.028 42.88 155.1C43.24 155.148 43.564 155.208 43.852 155.28C44.164 155.328 44.392 155.376 44.536 155.424L43.96 158.34C43.696 158.244 43.252 158.136 42.628 158.016C42.028 157.872 41.248 157.8 40.288 157.8C39.664 157.8 39.04 157.872 38.416 158.016C37.816 158.136 37.42 158.22 37.228 158.268V174H33.88V156.072C34.672 155.784 35.656 155.52 36.832 155.28C38.008 155.016 39.328 154.884 40.792 154.884ZM54.1027 171.588C54.8947 171.588 55.5907 171.576 56.1907 171.552C56.8147 171.504 57.3307 171.432 57.7387 171.336V165.756C57.4987 165.636 57.1027 165.54 56.5507 165.468C56.0227 165.372 55.3747 165.324 54.6067 165.324C54.1027 165.324 53.5627 165.36 52.9867 165.432C52.4347 165.504 51.9187 165.66 51.4387 165.9C50.9827 166.116 50.5987 166.428 50.2867 166.836C49.9747 167.22 49.8187 167.736 49.8187 168.384C49.8187 169.584 50.2027 170.424 50.9707 170.904C51.7387 171.36 52.7827 171.588 54.1027 171.588ZM53.8147 154.812C55.1587 154.812 56.2867 154.992 57.1987 155.352C58.1347 155.688 58.8787 156.18 59.4307 156.828C60.0067 157.452 60.4147 158.208 60.6547 159.096C60.8947 159.96 61.0147 160.92 61.0147 161.976V173.676C60.7267 173.724 60.3187 173.796 59.7907 173.892C59.2867 173.964 58.7107 174.036 58.0627 174.108C57.4147 174.18 56.7067 174.24 55.9387 174.288C55.1947 174.36 54.4507 174.396 53.7067 174.396C52.6507 174.396 51.6787 174.288 50.7907 174.072C49.9027 173.856 49.1347 173.52 48.4867 173.064C47.8387 172.584 47.3347 171.96 46.9747 171.192C46.6147 170.424 46.4347 169.5 46.4347 168.42C46.4347 167.388 46.6387 166.5 47.0467 165.756C47.4787 165.012 48.0547 164.412 48.7747 163.956C49.4947 163.5 50.3347 163.164 51.2947 162.948C52.2547 162.732 53.2627 162.624 54.3187 162.624C54.6547 162.624 55.0027 162.648 55.3627 162.696C55.7227 162.72 56.0587 162.768 56.3707 162.84C56.7067 162.888 56.9947 162.936 57.2347 162.984C57.4747 163.032 57.6427 163.068 57.7387 163.092V162.156C57.7387 161.604 57.6787 161.064 57.5587 160.536C57.4387 159.984 57.2227 159.504 56.9107 159.096C56.5987 158.664 56.1667 158.328 55.6147 158.088C55.0867 157.824 54.3907 157.692 53.5267 157.692C52.4227 157.692 51.4507 157.776 50.6107 157.944C49.7947 158.088 49.1827 158.244 48.7747 158.412L48.3787 155.64C48.8107 155.448 49.5307 155.268 50.5387 155.1C51.5467 154.908 52.6387 154.812 53.8147 154.812ZM66.5753 155.82C67.3433 155.628 68.3513 155.424 69.5993 155.208C70.8713 154.992 72.3353 154.884 73.9913 154.884C75.1913 154.884 76.1993 155.052 77.0153 155.388C77.8313 155.7 78.5153 156.168 79.0673 156.792C79.2353 156.672 79.4993 156.504 79.8593 156.288C80.2193 156.072 80.6633 155.868 81.1913 155.676C81.7193 155.46 82.3073 155.28 82.9553 155.136C83.6033 154.968 84.2993 154.884 85.0433 154.884C86.4833 154.884 87.6593 155.1 88.5713 155.532C89.4833 155.94 90.1913 156.528 90.6953 157.296C91.2233 158.064 91.5713 158.976 91.7393 160.032C91.9313 161.088 92.0273 162.24 92.0273 163.488V174H88.6793V164.208C88.6793 163.104 88.6193 162.156 88.4993 161.364C88.4033 160.572 88.1993 159.912 87.8873 159.384C87.5993 158.856 87.1913 158.472 86.6633 158.232C86.1593 157.968 85.4993 157.836 84.6833 157.836C83.5553 157.836 82.6193 157.992 81.8753 158.304C81.1553 158.592 80.6633 158.856 80.3993 159.096C80.5913 159.72 80.7353 160.404 80.8313 161.148C80.9273 161.892 80.9753 162.672 80.9753 163.488V174H77.6273V164.208C77.6273 163.104 77.5673 162.156 77.4473 161.364C77.3273 160.572 77.1113 159.912 76.7993 159.384C76.5113 158.856 76.1033 158.472 75.5753 158.232C75.0713 157.968 74.4233 157.836 73.6313 157.836C73.2953 157.836 72.9353 157.848 72.5513 157.872C72.1673 157.896 71.7953 157.932 71.4353 157.98C71.0993 158.004 70.7873 158.04 70.4993 158.088C70.2113 158.136 70.0193 158.172 69.9233 158.196V174H66.5753V155.82ZM114.107 164.64C114.107 166.128 113.891 167.472 113.459 168.672C113.027 169.872 112.415 170.904 111.623 171.768C110.855 172.632 109.931 173.304 108.851 173.784C107.771 174.24 106.595 174.468 105.323 174.468C104.051 174.468 102.875 174.24 101.795 173.784C100.715 173.304 99.7791 172.632 98.9871 171.768C98.2191 170.904 97.6191 169.872 97.1871 168.672C96.7551 167.472 96.5391 166.128 96.5391 164.64C96.5391 163.176 96.7551 161.844 97.1871 160.644C97.6191 159.42 98.2191 158.376 98.9871 157.512C99.7791 156.648 100.715 155.988 101.795 155.532C102.875 155.052 104.051 154.812 105.323 154.812C106.595 154.812 107.771 155.052 108.851 155.532C109.931 155.988 110.855 156.648 111.623 157.512C112.415 158.376 113.027 159.42 113.459 160.644C113.891 161.844 114.107 163.176 114.107 164.64ZM110.615 164.64C110.615 162.528 110.135 160.86 109.175 159.636C108.239 158.388 106.955 157.764 105.323 157.764C103.691 157.764 102.395 158.388 101.435 159.636C100.499 160.86 100.031 162.528 100.031 164.64C100.031 166.752 100.499 168.432 101.435 169.68C102.395 170.904 103.691 171.516 105.323 171.516C106.955 171.516 108.239 170.904 109.175 169.68C110.135 168.432 110.615 166.752 110.615 164.64ZM130.914 159.24C130.506 158.904 129.918 158.58 129.15 158.268C128.382 157.956 127.542 157.8 126.63 157.8C125.67 157.8 124.842 157.98 124.146 158.34C123.474 158.676 122.922 159.156 122.49 159.78C122.058 160.38 121.746 161.1 121.554 161.94C121.362 162.78 121.266 163.68 121.266 164.64C121.266 166.824 121.806 168.516 122.886 169.716C123.966 170.892 125.406 171.48 127.206 171.48C128.118 171.48 128.874 171.444 129.474 171.372C130.098 171.276 130.578 171.18 130.914 171.084V159.24ZM130.914 146.64L134.262 146.064V173.46C133.494 173.676 132.51 173.892 131.31 174.108C130.11 174.324 128.73 174.432 127.17 174.432C125.73 174.432 124.434 174.204 123.282 173.748C122.13 173.292 121.146 172.644 120.33 171.804C119.514 170.964 118.878 169.944 118.422 168.744C117.99 167.52 117.774 166.152 117.774 164.64C117.774 163.2 117.954 161.88 118.313 160.68C118.698 159.48 119.25 158.448 119.97 157.584C120.69 156.72 121.566 156.048 122.598 155.568C123.654 155.088 124.854 154.848 126.198 154.848C127.278 154.848 128.226 154.992 129.042 155.28C129.882 155.568 130.506 155.844 130.914 156.108V146.64ZM138.973 164.676C138.973 163.02 139.213 161.58 139.693 160.356C140.173 159.108 140.809 158.076 141.601 157.26C142.393 156.444 143.305 155.832 144.337 155.424C145.369 155.016 146.425 154.812 147.505 154.812C150.025 154.812 151.957 155.604 153.301 157.188C154.645 158.748 155.317 161.136 155.317 164.352C155.317 164.496 155.317 164.688 155.317 164.928C155.317 165.144 155.305 165.348 155.281 165.54H142.465C142.609 167.484 143.173 168.96 144.157 169.968C145.141 170.976 146.677 171.48 148.765 171.48C149.941 171.48 150.925 171.384 151.717 171.192C152.533 170.976 153.145 170.772 153.553 170.58L154.021 173.388C153.613 173.604 152.893 173.832 151.861 174.072C150.853 174.312 149.701 174.432 148.405 174.432C146.773 174.432 145.357 174.192 144.157 173.712C142.981 173.208 142.009 172.524 141.241 171.66C140.473 170.796 139.897 169.776 139.513 168.6C139.153 167.4 138.973 166.092 138.973 164.676ZM151.825 162.84C151.849 161.328 151.465 160.092 150.673 159.132C149.905 158.148 148.837 157.656 147.469 157.656C146.701 157.656 146.017 157.812 145.417 158.124C144.841 158.412 144.349 158.796 143.941 159.276C143.533 159.756 143.209 160.308 142.969 160.932C142.753 161.556 142.609 162.192 142.537 162.84H151.825ZM165.742 174.36C163.678 174.312 162.214 173.868 161.35 173.028C160.486 172.188 160.054 170.88 160.054 169.104V146.64L163.402 146.064V168.564C163.402 169.116 163.45 169.572 163.546 169.932C163.642 170.292 163.798 170.58 164.014 170.796C164.23 171.012 164.518 171.18 164.878 171.3C165.238 171.396 165.682 171.48 166.21 171.552L165.742 174.36Z" fill="#353535"/>
<path d="M39 53.6641V61.542H56.2328C58.8588 53.5 70.8069 37.7115 97.5916 38.8931C124.376 40.0748 140.263 54.4847 144.859 61.542H167.508V55.1412L148.798 53.6641C140.756 46.4427 119.256 32 97.5916 32C75.9275 32 58.6947 46.4427 52.7863 53.6641H39Z" fill="#353535"/>
<path fill-rule="evenodd" clip-rule="evenodd" d="M39 69.4198H59.187C64.1107 61.2137 79.2756 44.9 100.546 45.2939C121.816 45.6878 136.324 61.542 140.92 69.4198H168V77.7901H140.92L135.996 85.1756V105.363H145.351C142.233 106.84 135.996 111.074 135.996 116.195C135.996 121.315 137.309 126.534 137.966 128.504L129.595 129.489L127.134 94.0382C118.763 106.676 95.7206 131.852 70.5114 131.458C39 130.966 42.9389 113.24 47.8626 107.824C52.7863 102.408 57.7099 98.9618 64.1107 103.393C70.5114 107.824 70.0191 114.225 66.0802 116.195C62.1412 118.164 55.7405 115.702 57.7099 111.271C59.2855 107.726 60.9924 107.496 61.6489 107.824C59.187 106.019 53.771 104.181 51.8015 111.271C49.3397 120.134 54.2634 123.58 61.6489 123.58C62.3018 123.58 63.0125 123.588 63.7742 123.596C71.627 123.681 84.8936 123.825 96.1145 116.195C105.962 109.498 112.363 100.275 114.332 96.5C106.618 97.1565 89.1229 97.3863 80.8511 93.0534C72.5794 88.7206 63.6183 81.729 60.1718 78.7748H39V69.4198ZM75.4351 62.0344C68.345 67.155 64.9313 71.7176 64.1107 73.3588C68.3779 78.6107 81.6389 89.213 100.546 89.6069C119.453 90.0008 132.057 78.9389 135.996 73.3588C135.011 71.2252 131.86 65.9733 127.134 62.0344C122.407 58.0954 115.645 55.7977 112.855 55.1412C113.84 56.126 115.809 59.474 115.809 64.9886C115.809 71.8817 108.424 77.7901 100.546 77.7901C92.6679 77.7901 87.2519 71.8817 86.7595 64.9886C86.3656 59.474 88.2366 56.126 89.2214 55.1412C87.5802 55.3053 82.5252 56.9137 75.4351 62.0344Z" fill="#353535"/>
</svg>
